<svg width="168" height="61" viewBox="0 0 168 61" fill="none" xmlns="http://www.w3.org/2000/svg">
<path d="M125.557 48.8751C124.759 48.8751 124.083 48.718 123.529 48.4038C122.981 48.0845 122.537 47.663 122.198 47.1393C121.863 46.6106 121.619 46.0269 121.464 45.3885C121.31 44.75 121.232 44.1065 121.232 43.4581C121.232 42.8096 121.31 42.1662 121.464 41.5277C121.619 40.8892 121.863 40.3081 122.198 39.7844C122.537 39.2556 122.981 38.8341 123.529 38.5199C124.083 38.2006 124.759 38.041 125.557 38.041C126.36 38.041 127.039 38.2006 127.592 38.5199C128.146 38.8341 128.59 39.2556 128.924 39.7844C129.258 40.3081 129.5 40.8892 129.65 41.5277C129.804 42.1662 129.882 42.8096 129.882 43.4581C129.882 44.1065 129.804 44.75 129.65 45.3885C129.5 46.0269 129.258 46.6106 128.924 47.1393C128.59 47.663 128.146 48.0845 127.592 48.4038C127.039 48.718 126.36 48.8751 125.557 48.8751ZM125.557 47.88C126.161 47.88 126.667 47.7478 127.076 47.4835C127.49 47.2141 127.822 46.8625 128.071 46.4285C128.325 45.9895 128.508 45.5107 128.617 44.9919C128.732 44.4732 128.789 43.9619 128.789 43.4581C128.789 42.9094 128.732 42.3732 128.617 41.8494C128.508 41.3207 128.325 40.8443 128.071 40.4203C127.822 39.9963 127.49 39.6597 127.076 39.4102C126.667 39.1559 126.161 39.0287 125.557 39.0287C124.959 39.0287 124.452 39.1633 124.038 39.4327C123.629 39.6971 123.297 40.0487 123.043 40.4877C122.794 40.9216 122.612 41.4005 122.497 41.9242C122.382 42.443 122.325 42.9543 122.325 43.4581C122.325 44.0068 122.382 44.5455 122.497 45.0742C122.612 45.598 122.794 46.0718 123.043 46.4958C123.297 46.9148 123.629 47.2515 124.038 47.5059C124.452 47.7553 124.959 47.88 125.557 47.88Z" fill="#CBFD02"/>
<path d="M117.611 48.6957V38.2207H118.659V48.6957H117.611Z" fill="#CBFD02"/>
<path d="M107.557 48.6957V38.2207H110.258C111.146 38.2207 111.896 38.3703 112.51 38.6696C113.123 38.9689 113.615 39.3705 113.984 39.8743C114.358 40.3731 114.627 40.9342 114.792 41.5577C114.961 42.1763 115.046 42.8097 115.046 43.4582C115.046 44.0618 114.969 44.6703 114.814 45.2838C114.66 45.8974 114.4 46.4635 114.036 46.9823C113.672 47.4961 113.176 47.9101 112.547 48.2243C111.924 48.5386 111.141 48.6957 110.198 48.6957H107.557ZM108.604 47.7081H110.31C111.013 47.7081 111.599 47.5833 112.068 47.3339C112.537 47.0796 112.911 46.7453 113.191 46.3313C113.47 45.9123 113.667 45.4534 113.782 44.9546C113.901 44.4508 113.961 43.952 113.961 43.4582C113.961 42.9245 113.897 42.4057 113.767 41.9019C113.642 41.3931 113.438 40.9367 113.153 40.5327C112.874 40.1237 112.51 39.7994 112.061 39.56C111.617 39.3206 111.076 39.2009 110.437 39.2009H108.604V47.7081Z" fill="#CBFD02"/>
<path d="M100.946 48.8753C100.113 48.8753 99.4295 48.7181 98.8958 48.4039C98.3621 48.0847 97.968 47.6257 97.7136 47.0272C97.4592 46.4236 97.332 45.6904 97.332 44.8274V38.2207H98.3795V44.8199C98.3795 45.7876 98.5791 46.5408 98.9781 47.0796C99.3772 47.6183 100.033 47.8876 100.946 47.8876C101.48 47.8876 101.939 47.7854 102.323 47.5809C102.712 47.3763 103.008 47.0496 103.213 46.6007C103.422 46.1518 103.527 45.5582 103.527 44.8199V38.2207H104.575V44.8274C104.575 45.5158 104.495 46.1144 104.335 46.6231C104.181 47.1269 103.949 47.5484 103.639 47.8876C103.335 48.2218 102.956 48.4712 102.502 48.6358C102.053 48.7955 101.535 48.8753 100.946 48.8753Z" fill="#CBFD02"/>
<path d="M91.0515 48.6957V39.2308H88.1484V38.2207H95.0096V39.2308H92.099V48.6957H91.0515Z" fill="#CBFD02"/>
<path d="M83.1839 48.8751C82.6003 48.8751 82.0716 48.7754 81.5977 48.5759C81.1238 48.3713 80.7198 48.097 80.3856 47.7528C80.0564 47.4037 79.812 47.0146 79.6523 46.5856L80.6624 46.2265C80.8869 46.7203 81.2211 47.1193 81.665 47.4236C82.109 47.7279 82.6252 47.88 83.2138 47.88C83.8773 47.88 84.4085 47.7154 84.8075 47.3862C85.2116 47.057 85.4136 46.5781 85.4136 45.9496C85.4136 45.5256 85.2989 45.164 85.0694 44.8647C84.84 44.5604 84.5407 44.3061 84.1716 44.1015C83.8024 43.892 83.4084 43.71 82.9894 43.5553C82.6302 43.4207 82.2711 43.271 81.9119 43.1064C81.5578 42.9368 81.2336 42.7398 80.9393 42.5153C80.65 42.2859 80.418 42.009 80.2434 41.6848C80.0688 41.3606 79.9816 40.9765 79.9816 40.5326C79.9816 40.0737 80.1013 39.6572 80.3407 39.283C80.5851 38.904 80.9368 38.6022 81.3957 38.3777C81.8546 38.1532 82.4108 38.041 83.0642 38.041C83.578 38.041 84.0369 38.1183 84.4409 38.273C84.8449 38.4276 85.1816 38.6421 85.451 38.9164C85.7204 39.1908 85.9099 39.505 86.0196 39.8592L85.0395 40.1884C84.8998 39.8442 84.6554 39.5649 84.3062 39.3504C83.9621 39.1309 83.5231 39.0212 82.9894 39.0212C82.3908 39.0212 81.9194 39.1583 81.5753 39.4327C81.2361 39.702 81.0665 40.0712 81.0665 40.54C81.0665 40.9042 81.1787 41.2085 81.4032 41.4529C81.6276 41.6973 81.9194 41.9068 82.2786 42.0814C82.6427 42.256 83.0268 42.4231 83.4308 42.5827C83.785 42.7173 84.1416 42.8745 84.5008 43.054C84.8649 43.2336 85.1966 43.4531 85.4959 43.7125C85.7952 43.9669 86.0371 44.2761 86.2217 44.6403C86.4062 44.9994 86.4985 45.4309 86.4985 45.9347C86.4985 46.5632 86.3538 47.0969 86.0645 47.5358C85.7802 47.9698 85.3886 48.3015 84.8898 48.531C84.391 48.7604 83.8224 48.8751 83.1839 48.8751Z" fill="#CBFD02"/>
<path d="M71.4902 48.6957V38.2207H77.461V39.2009H72.5377V42.7848H75.8074V43.765H72.5377V47.7006H77.7902V48.6957H71.4902Z" fill="#CBFD02"/>
<rect width="60.1688" height="60.1688" rx="18" fill="url(#paint0_linear_362_108)"/>
<path d="M28.2699 14.9284C29.2146 13.3129 31.5764 13.3129 32.5212 14.9284L45.1832 36.5811C46.1279 38.1966 44.947 40.216 43.0576 40.216H17.7335C15.8441 40.216 14.6632 38.1966 15.6079 36.5811L28.2699 14.9284Z" fill="white"/>
<path d="M34.4266 9.8963L49.9676 37.5422C50.4566 38.4121 51.7513 38.0558 51.7513 37.0514V18.6208C51.7513 18.27 51.5691 17.9459 51.2734 17.7706L35.7324 8.55525C34.8854 8.05305 33.9377 9.02647 34.4266 9.8963Z" fill="white"/>
<path d="M46.3065 43.9333L14.2252 43.9333C13.2158 43.9333 12.8577 45.2696 13.7319 45.7743L29.7725 55.0354C30.0778 55.2116 30.4539 55.2116 30.7591 55.0354L46.7998 45.7743C47.674 45.2696 47.3159 43.9333 46.3065 43.9333Z" fill="white"/>
<path d="M26.9822 9.8963L10.6087 37.5422C10.0935 38.4121 8.72947 38.0558 8.72947 37.0514V18.6208C8.72947 18.27 8.92141 17.9459 9.233 17.7706L25.6065 8.55525C26.4988 8.05305 27.4974 9.02647 26.9822 9.8963Z" fill="white"/>
<path d="M167.211 30.3956H164.684V25.3406H150.555V22.8131H164.684V15.2306H155.61C154.464 15.2306 153.411 15.5171 152.451 16.09C151.49 16.646 150.724 17.4043 150.151 18.3647C149.595 19.3252 149.317 20.3867 149.317 21.5494V30.3956H146.789V21.5494C146.789 20.3362 147.017 19.1988 147.471 18.1373C147.926 17.0589 148.558 16.1153 149.367 15.3065C150.176 14.4808 151.111 13.8405 152.173 13.3856C153.251 12.9306 154.397 12.7031 155.61 12.7031H167.211V30.3956Z" fill="white"/>
<path d="M167.21 12.7039H155.609V11.9141H168V31.1863H163.893V26.1313H150.105V31.1863H145.998V21.5501C145.998 20.2354 146.245 18.9916 146.744 17.8268C147.207 16.7315 147.841 15.7594 148.644 14.9158L148.807 14.7487C149.687 13.8522 150.706 13.155 151.86 12.6605L151.862 12.6594L151.865 12.6587C153.044 12.1612 154.294 11.9141 155.609 11.9141V12.7039L155.382 12.7065C154.253 12.7331 153.182 12.9598 152.172 13.3863L151.974 13.4737C150.993 13.9219 150.124 14.5331 149.366 15.3072C148.557 16.1159 147.925 17.0596 147.47 18.1379C147.015 19.1995 146.788 20.3369 146.788 21.5501V30.3965H149.315V21.5501C149.315 20.3875 149.593 19.3259 150.149 18.3655C150.686 17.465 151.394 16.7423 152.272 16.1973L152.449 16.0908C153.35 15.5537 154.332 15.2682 155.395 15.2346L155.609 15.2313H164.683V22.814H150.554V25.3414H164.683V30.3965H167.21V12.7039ZM150.105 22.0242H163.893V16.0211H155.609C154.602 16.0212 153.689 16.271 152.854 16.7691L152.85 16.7717L152.845 16.7742C152.003 17.2619 151.334 17.9231 150.829 18.7679C150.349 19.6005 150.105 20.5223 150.105 21.5501V22.0242Z" fill="white"/>
<path d="M132.631 30.3956H130.104V21.5494C130.104 20.3867 129.817 19.3252 129.244 18.3647C128.688 17.4043 127.93 16.646 126.97 16.09C126.009 15.5171 124.948 15.2306 123.785 15.2306H122.42V30.3956H119.893V12.7031H123.785C125.386 12.7031 126.852 13.0991 128.183 13.8911C129.531 14.683 130.592 15.7193 131.367 16.9999C132.143 15.7193 133.196 14.683 134.527 13.8911C135.875 13.0991 137.349 12.7031 138.95 12.7031H142.842V30.3956H140.315V15.2306H138.95C137.787 15.2306 136.726 15.5171 135.765 16.09C134.822 16.646 134.063 17.4043 133.491 18.3647C132.918 19.3252 132.631 20.3867 132.631 21.5494V30.3956Z" fill="white"/>
<path d="M132.63 21.5501C132.63 20.4601 132.882 19.459 133.385 18.5467L133.489 18.3655C134.027 17.4651 134.726 16.7422 135.589 16.1973L135.764 16.0908C136.665 15.5537 137.654 15.2682 138.732 15.2346L138.949 15.2313H140.314V30.3965H142.841V12.7039H138.949V11.9141H143.631V31.1863H139.524V16.0211H138.949C137.923 16.0212 137.002 16.2722 136.169 16.7691L136.165 16.7711C135.39 17.228 134.758 17.8388 134.264 18.6131L134.168 18.7702C133.671 19.6033 133.42 20.524 133.42 21.5501V31.1863H129.313V21.5501C129.313 20.524 129.062 19.6033 128.565 18.7702L128.562 18.7658L128.56 18.7612C128.073 17.9202 127.414 17.2611 126.573 16.7742L126.568 16.7717L126.564 16.7691C125.731 16.2722 124.81 16.0212 123.784 16.0211H123.209V31.1863H119.102V11.9141H123.784V12.7039H119.891V30.3965H122.419V15.2313H123.784C124.946 15.2313 126.008 15.5179 126.968 16.0908C127.929 16.6469 128.687 17.405 129.243 18.3655C129.816 19.3259 130.103 20.3875 130.103 21.5501V30.3965H132.63V21.5501ZM138.949 12.7039L138.799 12.7052C137.256 12.7292 135.832 13.1246 134.526 13.8918C133.194 14.6837 132.141 15.7201 131.366 17.0007C130.615 15.7602 129.596 14.7488 128.307 13.9668L128.182 13.8918C126.892 13.1246 125.476 12.7292 123.933 12.7052L123.784 12.7039V11.9141C125.522 11.9141 127.128 12.3459 128.585 13.213H128.585C129.683 13.8588 130.612 14.6598 131.365 15.6149C132.115 14.6604 133.035 13.8593 134.122 13.213L134.124 13.212L134.126 13.2109C135.598 12.346 137.211 11.9141 138.949 11.9141V12.7039Z" fill="white"/>
<path d="M115.649 30.3956H113.121V25.3406H98.9925V22.8131H113.121V15.2306H104.048C102.902 15.2306 101.849 15.5171 100.888 16.09C99.9277 16.646 99.161 17.4043 98.5881 18.3647C98.0321 19.3252 97.7541 20.3867 97.7541 21.5494V30.3956H95.2266V21.5494C95.2266 20.3362 95.454 19.1988 95.909 18.1373C96.3639 17.0589 96.9958 16.1153 97.8046 15.3065C98.6134 14.4808 99.5486 13.8405 100.61 13.3856C101.689 12.9306 102.834 12.7031 104.048 12.7031H115.649V30.3956Z" fill="white"/>
<path d="M115.65 12.7039H104.048V11.9141H116.439V31.1863H112.332V26.1313H98.5446V31.1863H94.4375V21.5501C94.4375 20.2354 94.6847 18.9916 95.1839 17.8268C95.6763 16.661 96.3623 15.6349 97.241 14.7546L97.4079 14.5883C98.2502 13.7686 99.2156 13.1251 100.3 12.6605L100.302 12.6594L100.304 12.6587C101.483 12.1612 102.734 11.9141 104.048 11.9141V12.7039L103.822 12.7065C102.692 12.7331 101.622 12.9598 100.611 13.3863L100.413 13.4737C99.4329 13.9219 98.5636 14.5331 97.8054 15.3072C96.9966 16.1159 96.3647 17.0596 95.9097 18.1379C95.4548 19.1995 95.2274 20.3369 95.2273 21.5501V30.3965H97.7547V21.5501C97.7548 20.3875 98.0328 19.3259 98.5888 18.3655C99.1259 17.465 99.8335 16.7423 100.711 16.1973L100.889 16.0908C101.789 15.5537 102.771 15.2682 103.835 15.2346L104.048 15.2313H113.122V22.814H98.9932V25.3414H113.122V30.3965H115.65V12.7039ZM98.5446 22.0242H112.332V16.0211H104.048C103.041 16.0212 102.129 16.271 101.294 16.7691L101.289 16.7717L101.285 16.7742C100.442 17.2619 99.773 17.9231 99.2686 18.7679C98.7881 19.6005 98.5446 20.5223 98.5446 21.5501V22.0242Z" fill="white"/>
<path d="M91.8169 30.3956H80.4178C79.1878 30.3956 78.0757 30.1682 77.0815 29.7132C76.0874 29.2583 75.228 28.6264 74.5035 27.8176C73.7958 27.0088 73.2482 26.0736 72.8606 25.0121C72.4731 23.9337 72.2793 22.7794 72.2793 21.5494C72.2793 20.3362 72.4731 19.1988 72.8606 18.1373C73.2482 17.0589 73.7958 16.1153 74.5035 15.3065C75.228 14.4808 76.0874 13.8405 77.0815 13.3856C78.0757 12.9306 79.1878 12.7031 80.4178 12.7031H91.8169V15.2306H80.4178C79.2552 15.2306 78.2526 15.5171 77.4101 16.09C76.5845 16.646 75.9442 17.4043 75.4892 18.3647C75.0343 19.3252 74.8068 20.3867 74.8068 21.5494C74.8068 22.712 75.0343 23.7736 75.4892 24.734C75.9442 25.6776 76.5845 26.4359 77.4101 27.0088C78.2526 27.5817 79.2552 27.8681 80.4178 27.8681H89.2894V22.8131H78.5728V20.2856H91.8169V30.3956Z" fill="white"/>
<path d="M91.8177 20.2864H78.5736V22.814H89.2903V27.8688H80.4187V27.079H88.5004V23.6039H77.7838V19.4965H92.6075V31.1863H80.4187C79.0894 31.1863 77.863 30.9399 76.7535 30.4322C75.6614 29.9324 74.7136 29.2357 73.9161 28.3455L73.913 28.3419L73.9099 28.3386C73.1348 27.4528 72.5386 26.432 72.1194 25.2838L72.1189 25.2818L72.1181 25.28C71.6976 24.1098 71.4902 22.8645 71.4902 21.5501C71.4902 20.2513 71.6979 19.0217 72.1194 17.8672C72.538 16.7036 73.1338 15.674 73.9099 14.787L73.9107 14.7862L74.0619 14.6181C74.8274 13.7896 75.7262 13.1383 76.7535 12.6682C77.863 12.1604 79.0894 11.9141 80.4187 11.9141V12.7039L80.1893 12.7065C79.05 12.7331 78.0144 12.9598 77.0824 13.3863L76.8975 13.4737C75.9813 13.9219 75.1836 14.5331 74.5043 15.3072C73.7967 16.1159 73.249 17.0596 72.8614 18.1379C72.4739 19.1995 72.2801 20.3369 72.2801 21.5501L72.2824 21.7799C72.3051 22.9242 72.4981 24.0018 72.8614 25.0128C73.249 26.0744 73.7966 27.0096 74.5043 27.8184C75.2289 28.6272 76.0883 29.2592 77.0824 29.7141C78.0144 30.1406 79.05 30.367 80.1893 30.3936L80.4187 30.3965H91.8177V20.2864ZM74.8075 21.5501C74.8075 20.4601 75.0075 19.459 75.4073 18.5467L75.4901 18.3655C75.9166 17.4651 76.5059 16.7423 77.2583 16.1973L77.411 16.0908C78.2008 15.5538 79.1312 15.2682 80.2024 15.2346L80.4187 15.2313H91.8177V12.7039H80.4187V11.9141H92.6075V16.0211H80.4187C79.3913 16.0211 78.5486 16.2722 77.855 16.7439L77.8522 16.7459C77.1959 17.1879 76.6715 17.7825 76.2802 18.5483L76.2038 18.7036C75.8035 19.5487 75.5973 20.4933 75.5973 21.5501C75.5973 22.6049 75.8027 23.548 76.2015 24.3919L76.2779 24.5446C76.6691 25.2981 77.1959 25.8984 77.8596 26.3593C78.5524 26.829 79.3935 27.079 80.4187 27.079V27.8688L80.2024 27.8655C79.2026 27.8341 78.3253 27.5836 77.5706 27.1137L77.411 27.0095C76.5854 26.4367 75.9451 25.6784 75.4901 24.7349C75.0636 23.8345 74.837 22.8452 74.8103 21.7671L74.8075 21.5501Z" fill="white"/>
<defs>
<linearGradient id="paint0_linear_362_108" x1="-18.4332" y1="2.11569e-06" x2="49.7349" y2="41.7356" gradientUnits="userSpaceOnUse">
<stop stop-color="#CBFD02"/>
<stop offset="0.725962" stop-color="#683EE6"/>
</linearGradient>
</defs>
</svg>
